<?xml version="1.0" encoding="UTF-8" standalone="no"?>
<svg
   xmlns:dc="http://purl.org/dc/elements/1.1/"
   xmlns:cc="http://creativecommons.org/ns#"
   xmlns:rdf="http://www.w3.org/1999/02/22-rdf-syntax-ns#"
   xmlns:svg="http://www.w3.org/2000/svg"
   xmlns="http://www.w3.org/2000/svg"
   xmlns:sodipodi="http://sodipodi.sourceforge.net/DTD/sodipodi-0.dtd"
   xmlns:inkscape="http://www.inkscape.org/namespaces/inkscape"
   width="59"
   height="59"
   version="1.1"
   id="svg4"
   sodipodi:docname="icon-paper2.svg"
   inkscape:version="1.0 (4035a4fb49, 2020-05-01)">
  <metadata
     id="metadata10">
    <rdf:RDF>
      <cc:Work
         rdf:about="">
        <dc:format>image/svg+xml</dc:format>
        <dc:type
           rdf:resource="http://purl.org/dc/dcmitype/StillImage" />
        <dc:title></dc:title>
      </cc:Work>
    </rdf:RDF>
  </metadata>
  <defs
     id="defs8" />
  <sodipodi:namedview
     inkscape:document-rotation="0"
     pagecolor="#ffffff"
     bordercolor="#666666"
     borderopacity="1"
     objecttolerance="10"
     gridtolerance="10"
     guidetolerance="10"
     inkscape:pageopacity="0"
     inkscape:pageshadow="2"
     inkscape:window-width="1920"
     inkscape:window-height="1001"
     id="namedview6"
     showgrid="false"
     units="px"
     width="9.5in"
     inkscape:zoom="6.2288136"
     inkscape:cx="17.636453"
     inkscape:cy="22.738778"
     inkscape:window-x="-9"
     inkscape:window-y="-9"
     inkscape:window-maximized="1"
     inkscape:current-layer="svg4" />
  <path
     fill="#3b4262"
     d="m 51.780783,11.992544 a 2.922,2.922 0 0 0 -1.232,-0.198 c -0.57,0.04 -1.029,0.271 -1.302,0.65 -1.604,2.248 -2.919,6.493 -3.979,9.905 -0.486,1.577 -1.14,3.688 -1.612,4.69 -0.493,-2.807 0.064,-13.09 0.28,-17.0499999 l 0.003,-0.064 c 0.15,-2.7509999 0.17,-3.2339999 0.138,-3.4459999 -0.238,-1.509 -0.843,-2.5 -1.799,-2.943 -0.966,-0.45 -2.22,-0.25 -3.572,0.563 -0.677,0.41 -0.865,1.816 -1.446,8.1899998 l -0.002,0.028 c -0.32,3.502 -1.058,11.566 -1.965,12.91 -1.023,-1.88 -2.431,-12.555 -3.039,-17.1759998 -0.425,-3.236 -0.673,-5.094 -0.84,-5.655 -0.35,-1.176 -1.83,-2.17599998 -3.295,-2.23199998 -1.22,-0.06 -2.22,0.56000001 -2.698,1.63799998 -0.894,0.995 -0.578,4.292 0.41,12.1019998 0.47,3.718 1.44,11.395 0.83,12.257 -1.219,-0.133 -3.31,-4.942 -6.215,-14.299 -0.816,-2.6199998 -1.068,-3.4079998 -1.318,-3.7529998 -0.494,-1.202 -2.172,-2.129 -3.676,-2.024 a 3.183,3.183 0 0 0 -0.377,0.049 c -0.787,0.156 -2.584,0.881 -2.2,4.2259998 1.06,4.637 2.213,8.041 3.331,11.346 l 0.023,0.066 c 0.669,1.98 1.302,3.85 1.89,5.925 1.385,4.9 0.846,7.94 0.84,7.975 -0.046,0.312 -0.143,0.503 -0.288,0.57 a 0.556,0.556 0 0 1 -0.195,0.045 c -0.44,0.03 -1.098,-0.26 -1.437,-0.45 -0.776,-1.482 -4.636,-8.544 -8.1340007,-9.524 l -0.126,-0.037 -0.127,0.012 c -1.283,0.121 -2.226,0.606 -2.803,1.441 -0.914,1.32 -0.535,3.002 -0.444,3.34 l 0.052,0.12 c 0.028,0.051 2.834,5.165 3.268,7.544 0.3740004,2.04 2.3110007,4.25 3.8690007,6.026 l 0.064,0.073 c 0.508,0.58 0.946,1.083 1.292,1.548 4.519,4.713 11.665,8.677 11.723,8.71 0.892,0.657 1.387,1.293 1.44,1.84 a 0.798,0.798 0 0 1 -0.16,0.58 l -0.155,0.162 0.988,0.96 18.853,-1.324 0.804,-3.684 c 2.486,-10.402 1.967,-19.272 1.958,-19.33 0.01,-0.327 0.706,-3.483 1.266,-6.033 l 0.017,-0.065 c 1.117,-5.08 2.505,-11.4 2.772,-13.803 0.116,-1.028 -0.542,-1.972 -1.675,-2.401 z"
     id="path2" />
</svg>
